<?xml version="1.0" encoding="utf-8"?>
<svg version="1.1" id="Layer_1" xmlns="http://www.w3.org/2000/svg" xmlns:xlink="http://www.w3.org/1999/xlink" x="0px" y="0px"
	 width="45px" height="45px" viewBox="0 0 56.69 56.69" enable-background="new 0 0 56.69 56.69" xml:space="preserve">
<path fill="#fff" d="M50.679,13.355h-37c-0.072,0-0.137,0.027-0.205,0.042L11.969,8.4c-0.017-0.054-0.053-0.094-0.077-0.144
	c-0.041-0.514-0.46-0.921-0.984-0.921c-0.001,0-0.003,0-0.004,0L6.008,7.356C5.455,7.359,5.01,7.809,5.012,8.361
	c0.002,0.551,0.449,0.996,1,0.996c0.001,0,0.003,0,0.004,0l4.147-0.018l9.573,31.771c-0.951,0.869-1.558,2.107-1.558,3.496
	c0,2.623,2.126,4.75,4.75,4.75c2.623,0,4.75-2.127,4.75-4.75c0-0.684-0.15-1.33-0.41-1.917h13.82c-0.26,0.587-0.41,1.233-0.41,1.917
	c0,2.623,2.126,4.75,4.75,4.75c2.623,0,4.75-2.127,4.75-4.75s-2.127-4.75-4.75-4.75c-0.996,0-1.919,0.309-2.683,0.833H25.61
	c-0.764-0.524-1.686-0.833-2.682-0.833c-0.495,0-0.963,0.097-1.412,0.237l-1.428-4.738l25.194-0.02c0.441,0,0.804-0.291,0.936-0.688
	c0.034-0.063,0.071-0.124,0.091-0.196l5.333-19.666c0.034-0.125,0.038-0.25,0.024-0.371c0.001-0.021,0.012-0.038,0.012-0.058
	C51.679,13.803,51.231,13.355,50.679,13.355z M45.429,41.855c1.517,0,2.75,1.233,2.75,2.75s-1.233,2.75-2.75,2.75
	s-2.75-1.233-2.75-2.75S43.912,41.855,45.429,41.855z M22.929,41.855c1.517,0,2.75,1.233,2.75,2.75s-1.233,2.75-2.75,2.75
	s-2.75-1.233-2.75-2.75S21.412,41.855,22.929,41.855z M44.54,33.336l-25.053,0.02l-5.423-18h35.352L44.54,33.336z"/>
</svg>
